<mxfile host="app.diagrams.net" modified="2024-07-03T10:46:01.910Z" agent="Mozilla/5.0 (Windows NT 10.0; Win64; x64) AppleWebKit/537.36 (KHTML, like Gecko) Chrome/126.0.0.0 Safari/537.36 Edg/126.0.0.0" etag="NOQRQi3Wd6jr3D73ikMR" version="24.6.4" type="github">
  <diagram name="Page-1" id="S5gT9ed5FIzT58Pkyxsj">
    <mxGraphModel dx="2342" dy="1840" grid="1" gridSize="10" guides="1" tooltips="1" connect="1" arrows="1" fold="1" page="1" pageScale="1" pageWidth="827" pageHeight="1169" math="0" shadow="0">
      <root>
        <mxCell id="0" />
        <mxCell id="1" parent="0" />
        <mxCell id="1RcFYnAborwAYiBL6ikK-1" value="UI" style="swimlane;whiteSpace=wrap;html=1;" vertex="1" parent="1">
          <mxGeometry x="-780" y="50" width="630" height="1650" as="geometry">
            <mxRectangle x="-800" y="40" width="140" height="30" as="alternateBounds" />
          </mxGeometry>
        </mxCell>
        <mxCell id="1RcFYnAborwAYiBL6ikK-2" value="" style="ellipse;fillColor=strokeColor;html=1;" vertex="1" parent="1RcFYnAborwAYiBL6ikK-1">
          <mxGeometry x="130" y="390" width="30" height="30" as="geometry" />
        </mxCell>
        <mxCell id="1RcFYnAborwAYiBL6ikK-3" value="" style="html=1;verticalAlign=bottom;labelBackgroundColor=none;endArrow=block;endFill=1;rounded=0;exitX=0.5;exitY=1;exitDx=0;exitDy=0;" edge="1" parent="1RcFYnAborwAYiBL6ikK-1" source="1RcFYnAborwAYiBL6ikK-2">
          <mxGeometry width="160" relative="1" as="geometry">
            <mxPoint x="170" y="650" as="sourcePoint" />
            <mxPoint x="145" y="470" as="targetPoint" />
          </mxGeometry>
        </mxCell>
        <mxCell id="1RcFYnAborwAYiBL6ikK-4" value="&lt;span style=&quot;font-size: 13px;&quot;&gt;A L&#39;initiation de la commande d&#39;une MOJ&lt;/span&gt;" style="text;html=1;align=center;verticalAlign=middle;whiteSpace=wrap;rounded=0;" vertex="1" parent="1RcFYnAborwAYiBL6ikK-1">
          <mxGeometry x="40" y="360" width="80" height="90" as="geometry" />
        </mxCell>
        <mxCell id="1RcFYnAborwAYiBL6ikK-5" value="&lt;font style=&quot;font-size: 14px;&quot;&gt;Remplir le Formulaire de Commande de la MOJ&lt;/font&gt;" style="html=1;align=center;verticalAlign=top;rounded=1;absoluteArcSize=1;arcSize=10;dashed=0;whiteSpace=wrap;" vertex="1" parent="1RcFYnAborwAYiBL6ikK-1">
          <mxGeometry x="80" y="470" width="140" height="70" as="geometry" />
        </mxCell>
        <mxCell id="1RcFYnAborwAYiBL6ikK-6" value="Message D&#39;erreur" style="swimlane;fontStyle=1;align=center;verticalAlign=middle;childLayout=stackLayout;horizontal=1;startSize=30;horizontalStack=0;resizeParent=0;resizeLast=1;container=0;fontColor=#000000;collapsible=0;rounded=1;arcSize=30;strokeColor=#ff0000;fillColor=#ffffff;swimlaneFillColor=#ffffff;dropTarget=0;labelBorderColor=none;labelBackgroundColor=none;" vertex="1" parent="1RcFYnAborwAYiBL6ikK-1">
          <mxGeometry x="193" y="999" width="160" height="70" as="geometry" />
        </mxCell>
        <mxCell id="1RcFYnAborwAYiBL6ikK-7" value="La quantité totale d&#39;unité d&#39;oeuvre à manipuler est invalide" style="text;html=1;strokeColor=none;fillColor=none;align=center;verticalAlign=middle;spacingLeft=4;spacingRight=4;whiteSpace=wrap;overflow=hidden;rotatable=0;fontColor=#000000;" vertex="1" parent="1RcFYnAborwAYiBL6ikK-6">
          <mxGeometry y="30" width="160" height="40" as="geometry" />
        </mxCell>
        <mxCell id="1RcFYnAborwAYiBL6ikK-8" value="&lt;font style=&quot;font-size: 18px;&quot;&gt;Clique Engistrer&lt;/font&gt;" style="html=1;align=center;verticalAlign=top;rounded=1;absoluteArcSize=1;arcSize=10;dashed=0;whiteSpace=wrap;" vertex="1" parent="1RcFYnAborwAYiBL6ikK-1">
          <mxGeometry x="337" y="389" width="100" height="60" as="geometry" />
        </mxCell>
        <mxCell id="1RcFYnAborwAYiBL6ikK-9" value="" style="html=1;verticalAlign=bottom;labelBackgroundColor=none;endArrow=block;endFill=1;rounded=0;entryX=0;entryY=0.5;entryDx=0;entryDy=0;" edge="1" parent="1RcFYnAborwAYiBL6ikK-1" target="1RcFYnAborwAYiBL6ikK-8">
          <mxGeometry width="160" relative="1" as="geometry">
            <mxPoint x="221" y="499.44" as="sourcePoint" />
            <mxPoint x="331" y="500" as="targetPoint" />
          </mxGeometry>
        </mxCell>
        <mxCell id="1RcFYnAborwAYiBL6ikK-10" value="" style="html=1;verticalAlign=bottom;labelBackgroundColor=none;endArrow=block;endFill=1;rounded=0;" edge="1" parent="1RcFYnAborwAYiBL6ikK-1">
          <mxGeometry width="160" relative="1" as="geometry">
            <mxPoint x="437" y="420" as="sourcePoint" />
            <mxPoint x="732" y="420" as="targetPoint" />
            <Array as="points">
              <mxPoint x="542" y="420" />
            </Array>
          </mxGeometry>
        </mxCell>
        <mxCell id="1RcFYnAborwAYiBL6ikK-11" value="&lt;font style=&quot;font-size: 18px;&quot;&gt;Clique Ajouter&lt;/font&gt;" style="html=1;align=center;verticalAlign=top;rounded=1;absoluteArcSize=1;arcSize=10;dashed=0;whiteSpace=wrap;" vertex="1" parent="1RcFYnAborwAYiBL6ikK-1">
          <mxGeometry x="337" y="500" width="100" height="60" as="geometry" />
        </mxCell>
        <mxCell id="1RcFYnAborwAYiBL6ikK-12" value="" style="html=1;verticalAlign=bottom;labelBackgroundColor=none;endArrow=block;endFill=1;rounded=0;entryX=0;entryY=0.5;entryDx=0;entryDy=0;exitX=1;exitY=0.5;exitDx=0;exitDy=0;" edge="1" parent="1RcFYnAborwAYiBL6ikK-1" source="1RcFYnAborwAYiBL6ikK-5" target="1RcFYnAborwAYiBL6ikK-11">
          <mxGeometry width="160" relative="1" as="geometry">
            <mxPoint x="231" y="509.44" as="sourcePoint" />
            <mxPoint x="347" y="429" as="targetPoint" />
          </mxGeometry>
        </mxCell>
        <mxCell id="1RcFYnAborwAYiBL6ikK-13" value="Message D&#39;erreur" style="swimlane;fontStyle=1;align=center;verticalAlign=middle;childLayout=stackLayout;horizontal=1;startSize=30;horizontalStack=0;resizeParent=0;resizeLast=1;container=0;fontColor=#000000;collapsible=0;rounded=1;arcSize=30;strokeColor=#ff0000;fillColor=#ffffff;swimlaneFillColor=#ffffff;dropTarget=0;labelBorderColor=none;labelBackgroundColor=none;" vertex="1" parent="1RcFYnAborwAYiBL6ikK-1">
          <mxGeometry x="360" y="120" width="250" height="120" as="geometry" />
        </mxCell>
        <mxCell id="1RcFYnAborwAYiBL6ikK-14" value="Veuillez saisir le libellé de la mission.&lt;div&gt;&lt;div&gt;Veuillez sélectionner le service.&lt;/div&gt;&lt;div&gt;Veuillez sélectionner le type de mission.&lt;/div&gt;&lt;/div&gt;&lt;div&gt;&lt;div&gt;Veuillez sélectionner le valideur.&lt;/div&gt;&lt;div&gt;Veuillez sélectionner le site.&lt;/div&gt;&lt;div&gt;Veuillez sélectionner la prestation.&lt;/div&gt;&lt;/div&gt;" style="text;html=1;strokeColor=none;fillColor=none;align=center;verticalAlign=middle;spacingLeft=4;spacingRight=4;whiteSpace=wrap;overflow=hidden;rotatable=0;fontColor=#000000;" vertex="1" parent="1RcFYnAborwAYiBL6ikK-13">
          <mxGeometry y="30" width="250" height="90" as="geometry" />
        </mxCell>
        <mxCell id="1RcFYnAborwAYiBL6ikK-15" value="Message D&#39;erreur" style="swimlane;fontStyle=1;align=center;verticalAlign=middle;childLayout=stackLayout;horizontal=1;startSize=30;horizontalStack=0;resizeParent=0;resizeLast=1;container=0;fontColor=#000000;collapsible=0;rounded=1;arcSize=30;strokeColor=#ff0000;fillColor=#ffffff;swimlaneFillColor=#ffffff;dropTarget=0;labelBorderColor=none;labelBackgroundColor=none;" vertex="1" parent="1RcFYnAborwAYiBL6ikK-1">
          <mxGeometry x="150" y="860" width="160" height="80" as="geometry" />
        </mxCell>
        <mxCell id="1RcFYnAborwAYiBL6ikK-16" value="Veuillez sélectionner un dossier SPOT" style="text;html=1;strokeColor=none;fillColor=none;align=center;verticalAlign=middle;spacingLeft=4;spacingRight=4;whiteSpace=wrap;overflow=hidden;rotatable=0;fontColor=#000000;" vertex="1" parent="1RcFYnAborwAYiBL6ikK-15">
          <mxGeometry y="30" width="160" height="50" as="geometry" />
        </mxCell>
        <mxCell id="1RcFYnAborwAYiBL6ikK-17" value="Control" style="swimlane;whiteSpace=wrap;html=1;" vertex="1" parent="1">
          <mxGeometry x="-100" y="60" width="430" height="1640" as="geometry">
            <mxRectangle x="90" y="40" width="90" height="30" as="alternateBounds" />
          </mxGeometry>
        </mxCell>
        <mxCell id="1RcFYnAborwAYiBL6ikK-18" value="Action&#xa;Ajouter ?" style="rhombus;" vertex="1" parent="1RcFYnAborwAYiBL6ikK-17">
          <mxGeometry x="135" y="560" width="90" height="80" as="geometry" />
        </mxCell>
        <mxCell id="1RcFYnAborwAYiBL6ikK-19" value="&lt;div style=&quot;font-size: 15px;&quot;&gt;&lt;font style=&quot;font-size: 15px;&quot;&gt;Une commande&lt;/font&gt;&lt;/div&gt;&lt;div style=&quot;font-size: 15px;&quot;&gt;&lt;font style=&quot;font-size: 15px;&quot;&gt;reprennant les informations&lt;/font&gt;&lt;/div&gt;&lt;div style=&quot;font-size: 15px;&quot;&gt;&lt;font style=&quot;font-size: 15px;&quot;&gt;saisies existes déjà&lt;/font&gt;&lt;/div&gt;&lt;div style=&quot;font-size: 15px;&quot;&gt;&lt;font style=&quot;font-size: 15px;&quot;&gt;Souhaitez-vous&amp;nbsp;&lt;/font&gt;&lt;/div&gt;&lt;div style=&quot;font-size: 15px;&quot;&gt;&lt;font style=&quot;font-size: 15px;&quot;&gt;poursuivre ?&lt;/font&gt;&lt;/div&gt;" style="rhombus;whiteSpace=wrap;html=1;fontColor=#000000;fillColor=#ffffc0;strokeColor=#ff0000;" vertex="1" parent="1RcFYnAborwAYiBL6ikK-17">
          <mxGeometry x="38" y="333" width="260" height="170" as="geometry" />
        </mxCell>
        <mxCell id="1RcFYnAborwAYiBL6ikK-20" value="Si oui" style="text;html=1;align=center;verticalAlign=middle;whiteSpace=wrap;rounded=0;" vertex="1" parent="1RcFYnAborwAYiBL6ikK-17">
          <mxGeometry x="167" y="306" width="60" height="30" as="geometry" />
        </mxCell>
        <mxCell id="1RcFYnAborwAYiBL6ikK-21" value="Si non" style="text;html=1;align=center;verticalAlign=middle;whiteSpace=wrap;rounded=0;" vertex="1" parent="1RcFYnAborwAYiBL6ikK-17">
          <mxGeometry x="309" y="397" width="60" height="30" as="geometry" />
        </mxCell>
        <mxCell id="1RcFYnAborwAYiBL6ikK-22" value="Si oui" style="text;html=1;align=center;verticalAlign=middle;whiteSpace=wrap;rounded=0;" vertex="1" parent="1RcFYnAborwAYiBL6ikK-17">
          <mxGeometry x="238" y="580" width="60" height="30" as="geometry" />
        </mxCell>
        <mxCell id="1RcFYnAborwAYiBL6ikK-23" value="Systeme" style="swimlane;whiteSpace=wrap;html=1;" vertex="1" parent="1">
          <mxGeometry x="340" y="70" width="480" height="1630" as="geometry" />
        </mxCell>
        <mxCell id="1RcFYnAborwAYiBL6ikK-24" value="Vérifier la sélection d&#39;un&lt;span style=&quot;background-color: initial;&quot;&gt;&amp;nbsp;Dossier SPOT&lt;/span&gt;" style="html=1;align=center;verticalAlign=top;rounded=1;absoluteArcSize=1;arcSize=10;dashed=0;whiteSpace=wrap;" vertex="1" parent="1RcFYnAborwAYiBL6ikK-23">
          <mxGeometry x="64" y="710" width="140" height="50" as="geometry" />
        </mxCell>
        <mxCell id="1RcFYnAborwAYiBL6ikK-25" value="Vérifier Saisie de la Qte UO manipulée" style="html=1;align=center;verticalAlign=top;rounded=1;absoluteArcSize=1;arcSize=10;dashed=0;whiteSpace=wrap;" vertex="1" parent="1RcFYnAborwAYiBL6ikK-23">
          <mxGeometry x="54" y="871" width="140" height="40" as="geometry" />
        </mxCell>
        <mxCell id="1RcFYnAborwAYiBL6ikK-26" value="Verifier la Saisie du nom de produits" style="html=1;align=center;verticalAlign=top;rounded=1;absoluteArcSize=1;arcSize=10;dashed=0;whiteSpace=wrap;" vertex="1" parent="1RcFYnAborwAYiBL6ikK-23">
          <mxGeometry x="74" y="1011" width="140" height="40" as="geometry" />
        </mxCell>
        <mxCell id="1RcFYnAborwAYiBL6ikK-27" value="Vérifier L&#39;Entrer le Nom du Site" style="html=1;align=center;verticalAlign=top;rounded=1;absoluteArcSize=1;arcSize=10;dashed=0;whiteSpace=wrap;" vertex="1" parent="1RcFYnAborwAYiBL6ikK-23">
          <mxGeometry x="83" y="1154" width="140" height="40" as="geometry" />
        </mxCell>
        <mxCell id="1RcFYnAborwAYiBL6ikK-28" value="" style="ellipse;html=1;shape=endState;fillColor=strokeColor;" vertex="1" parent="1RcFYnAborwAYiBL6ikK-23">
          <mxGeometry x="321" y="1294" width="52" height="50" as="geometry" />
        </mxCell>
        <mxCell id="1RcFYnAborwAYiBL6ikK-29" value="" style="html=1;verticalAlign=bottom;labelBackgroundColor=none;endArrow=block;endFill=1;rounded=0;" edge="1" parent="1RcFYnAborwAYiBL6ikK-23">
          <mxGeometry width="160" relative="1" as="geometry">
            <mxPoint x="233" y="1314" as="sourcePoint" />
            <mxPoint x="323" y="1314" as="targetPoint" />
          </mxGeometry>
        </mxCell>
        <mxCell id="1RcFYnAborwAYiBL6ikK-30" value="" style="shape=sumEllipse;perimeter=ellipsePerimeter;html=1;backgroundOutline=1;" vertex="1" parent="1RcFYnAborwAYiBL6ikK-23">
          <mxGeometry x="170" y="390" width="57" height="50" as="geometry" />
        </mxCell>
        <mxCell id="1RcFYnAborwAYiBL6ikK-31" value="Condition&#xa;remplie ?" style="rhombus;" vertex="1" parent="1">
          <mxGeometry x="34" y="911" width="90" height="80" as="geometry" />
        </mxCell>
        <mxCell id="1RcFYnAborwAYiBL6ikK-32" value="" style="html=1;verticalAlign=bottom;labelBackgroundColor=none;endArrow=block;endFill=1;rounded=0;entryX=0.5;entryY=0;entryDx=0;entryDy=0;exitX=0.571;exitY=1;exitDx=0;exitDy=0;exitPerimeter=0;" edge="1" parent="1" target="1RcFYnAborwAYiBL6ikK-31">
          <mxGeometry width="160" relative="1" as="geometry">
            <mxPoint x="474" y="831" as="sourcePoint" />
            <mxPoint x="484" y="901" as="targetPoint" />
            <Array as="points">
              <mxPoint x="474" y="871" />
              <mxPoint x="79" y="871" />
            </Array>
          </mxGeometry>
        </mxCell>
        <mxCell id="1RcFYnAborwAYiBL6ikK-33" value="Si non" style="text;html=1;align=center;verticalAlign=middle;whiteSpace=wrap;rounded=0;" vertex="1" parent="1">
          <mxGeometry x="-36" y="921" width="60" height="30" as="geometry" />
        </mxCell>
        <mxCell id="1RcFYnAborwAYiBL6ikK-34" value="Si oui" style="text;html=1;align=center;verticalAlign=middle;whiteSpace=wrap;rounded=0;" vertex="1" parent="1">
          <mxGeometry x="124" y="921" width="60" height="30" as="geometry" />
        </mxCell>
        <mxCell id="1RcFYnAborwAYiBL6ikK-35" value="" style="html=1;verticalAlign=bottom;labelBackgroundColor=none;endArrow=block;endFill=1;rounded=0;exitX=1;exitY=0.5;exitDx=0;exitDy=0;exitPerimeter=0;" edge="1" parent="1">
          <mxGeometry width="160" relative="1" as="geometry">
            <mxPoint x="124" y="951" as="sourcePoint" />
            <mxPoint x="394" y="951" as="targetPoint" />
            <Array as="points" />
          </mxGeometry>
        </mxCell>
        <mxCell id="1RcFYnAborwAYiBL6ikK-36" value="" style="html=1;verticalAlign=bottom;labelBackgroundColor=none;endArrow=block;endFill=1;rounded=0;exitX=0;exitY=0.5;exitDx=0;exitDy=0;" edge="1" parent="1">
          <mxGeometry width="160" relative="1" as="geometry">
            <mxPoint x="34" y="951" as="sourcePoint" />
            <mxPoint x="-467" y="951" as="targetPoint" />
            <Array as="points">
              <mxPoint x="-357" y="954" />
            </Array>
          </mxGeometry>
        </mxCell>
        <mxCell id="1RcFYnAborwAYiBL6ikK-37" value="Condition&#xa;remplie ?" style="rhombus;" vertex="1" parent="1">
          <mxGeometry x="24" y="1051" width="90" height="80" as="geometry" />
        </mxCell>
        <mxCell id="1RcFYnAborwAYiBL6ikK-38" value="Si non" style="text;html=1;align=center;verticalAlign=middle;whiteSpace=wrap;rounded=0;" vertex="1" parent="1">
          <mxGeometry x="-46" y="1061" width="60" height="30" as="geometry" />
        </mxCell>
        <mxCell id="1RcFYnAborwAYiBL6ikK-39" value="Si oui" style="text;html=1;align=center;verticalAlign=middle;whiteSpace=wrap;rounded=0;" vertex="1" parent="1">
          <mxGeometry x="114" y="1061" width="60" height="30" as="geometry" />
        </mxCell>
        <mxCell id="1RcFYnAborwAYiBL6ikK-40" value="" style="html=1;verticalAlign=bottom;labelBackgroundColor=none;endArrow=block;endFill=1;rounded=0;entryX=0.5;entryY=0;entryDx=0;entryDy=0;exitX=0.571;exitY=1;exitDx=0;exitDy=0;exitPerimeter=0;" edge="1" parent="1" target="1RcFYnAborwAYiBL6ikK-37">
          <mxGeometry width="160" relative="1" as="geometry">
            <mxPoint x="464" y="971" as="sourcePoint" />
            <mxPoint x="474" y="1041" as="targetPoint" />
            <Array as="points">
              <mxPoint x="464" y="1011" />
              <mxPoint x="69" y="1011" />
            </Array>
          </mxGeometry>
        </mxCell>
        <mxCell id="1RcFYnAborwAYiBL6ikK-41" value="" style="html=1;verticalAlign=bottom;labelBackgroundColor=none;endArrow=block;endFill=1;rounded=0;exitX=1;exitY=0.5;exitDx=0;exitDy=0;exitPerimeter=0;" edge="1" parent="1" source="1RcFYnAborwAYiBL6ikK-37">
          <mxGeometry width="160" relative="1" as="geometry">
            <mxPoint x="114" y="1083" as="sourcePoint" />
            <mxPoint x="414" y="1091" as="targetPoint" />
            <Array as="points">
              <mxPoint x="334" y="1091" />
            </Array>
          </mxGeometry>
        </mxCell>
        <mxCell id="1RcFYnAborwAYiBL6ikK-42" value="" style="html=1;verticalAlign=bottom;labelBackgroundColor=none;endArrow=block;endFill=1;rounded=0;exitX=0;exitY=0.5;exitDx=0;exitDy=0;" edge="1" parent="1" source="1RcFYnAborwAYiBL6ikK-37">
          <mxGeometry width="160" relative="1" as="geometry">
            <mxPoint x="24" y="1080" as="sourcePoint" />
            <mxPoint x="-427" y="1091" as="targetPoint" />
            <Array as="points" />
          </mxGeometry>
        </mxCell>
        <mxCell id="1RcFYnAborwAYiBL6ikK-43" value="Message D&#39;erreur" style="swimlane;fontStyle=1;align=center;verticalAlign=middle;childLayout=stackLayout;horizontal=1;startSize=30;horizontalStack=0;resizeParent=0;resizeLast=1;container=0;fontColor=#000000;collapsible=0;rounded=1;arcSize=30;strokeColor=#ff0000;fillColor=#ffffff;swimlaneFillColor=#ffffff;dropTarget=0;labelBorderColor=none;labelBackgroundColor=none;" vertex="1" parent="1">
          <mxGeometry x="-577" y="1199" width="160" height="70" as="geometry" />
        </mxCell>
        <mxCell id="1RcFYnAborwAYiBL6ikK-44" value="Entrer Le nom&amp;nbsp; produit à manipuler" style="text;html=1;strokeColor=none;fillColor=none;align=center;verticalAlign=middle;spacingLeft=4;spacingRight=4;whiteSpace=wrap;overflow=hidden;rotatable=0;fontColor=#000000;" vertex="1" parent="1RcFYnAborwAYiBL6ikK-43">
          <mxGeometry y="30" width="160" height="40" as="geometry" />
        </mxCell>
        <mxCell id="1RcFYnAborwAYiBL6ikK-45" value="Condition&#xa;remplie ?" style="rhombus;" vertex="1" parent="1">
          <mxGeometry x="34" y="1191" width="90" height="80" as="geometry" />
        </mxCell>
        <mxCell id="1RcFYnAborwAYiBL6ikK-46" value="Si non" style="text;html=1;align=center;verticalAlign=middle;whiteSpace=wrap;rounded=0;" vertex="1" parent="1">
          <mxGeometry x="-36" y="1201" width="60" height="30" as="geometry" />
        </mxCell>
        <mxCell id="1RcFYnAborwAYiBL6ikK-47" value="Si oui" style="text;html=1;align=center;verticalAlign=middle;whiteSpace=wrap;rounded=0;" vertex="1" parent="1">
          <mxGeometry x="124" y="1201" width="60" height="30" as="geometry" />
        </mxCell>
        <mxCell id="1RcFYnAborwAYiBL6ikK-48" value="" style="html=1;verticalAlign=bottom;labelBackgroundColor=none;endArrow=block;endFill=1;rounded=0;entryX=0.5;entryY=0;entryDx=0;entryDy=0;exitX=0.571;exitY=1;exitDx=0;exitDy=0;exitPerimeter=0;" edge="1" parent="1" target="1RcFYnAborwAYiBL6ikK-45">
          <mxGeometry width="160" relative="1" as="geometry">
            <mxPoint x="474" y="1111" as="sourcePoint" />
            <mxPoint x="484" y="1181" as="targetPoint" />
            <Array as="points">
              <mxPoint x="474" y="1151" />
              <mxPoint x="79" y="1151" />
            </Array>
          </mxGeometry>
        </mxCell>
        <mxCell id="1RcFYnAborwAYiBL6ikK-49" value="" style="html=1;verticalAlign=bottom;labelBackgroundColor=none;endArrow=block;endFill=1;rounded=0;exitX=1;exitY=0.5;exitDx=0;exitDy=0;exitPerimeter=0;" edge="1" parent="1" source="1RcFYnAborwAYiBL6ikK-45">
          <mxGeometry width="160" relative="1" as="geometry">
            <mxPoint x="124" y="1223" as="sourcePoint" />
            <mxPoint x="424" y="1231" as="targetPoint" />
            <Array as="points">
              <mxPoint x="344" y="1231" />
            </Array>
          </mxGeometry>
        </mxCell>
        <mxCell id="1RcFYnAborwAYiBL6ikK-50" value="" style="html=1;verticalAlign=bottom;labelBackgroundColor=none;endArrow=block;endFill=1;rounded=0;exitX=0;exitY=0.5;exitDx=0;exitDy=0;" edge="1" parent="1" source="1RcFYnAborwAYiBL6ikK-45">
          <mxGeometry width="160" relative="1" as="geometry">
            <mxPoint x="34" y="1220" as="sourcePoint" />
            <mxPoint x="-417" y="1231" as="targetPoint" />
            <Array as="points" />
          </mxGeometry>
        </mxCell>
        <mxCell id="1RcFYnAborwAYiBL6ikK-51" value="Enregistrer La Commande" style="html=1;align=center;verticalAlign=top;rounded=1;absoluteArcSize=1;arcSize=10;dashed=0;whiteSpace=wrap;" vertex="1" parent="1">
          <mxGeometry x="433" y="1358" width="140" height="40" as="geometry" />
        </mxCell>
        <mxCell id="1RcFYnAborwAYiBL6ikK-52" value="Message D&#39;erreur" style="swimlane;fontStyle=1;align=center;verticalAlign=middle;childLayout=stackLayout;horizontal=1;startSize=30;horizontalStack=0;resizeParent=0;resizeLast=1;container=0;fontColor=#000000;collapsible=0;rounded=1;arcSize=30;strokeColor=#ff0000;fillColor=#ffffff;swimlaneFillColor=#ffffff;dropTarget=0;labelBorderColor=none;labelBackgroundColor=none;" vertex="1" parent="1">
          <mxGeometry x="-567" y="1343" width="160" height="70" as="geometry" />
        </mxCell>
        <mxCell id="1RcFYnAborwAYiBL6ikK-53" value="Entrer Le nom&amp;nbsp; du Site&amp;nbsp;" style="text;html=1;strokeColor=none;fillColor=none;align=center;verticalAlign=middle;spacingLeft=4;spacingRight=4;whiteSpace=wrap;overflow=hidden;rotatable=0;fontColor=#000000;" vertex="1" parent="1RcFYnAborwAYiBL6ikK-52">
          <mxGeometry y="30" width="160" height="40" as="geometry" />
        </mxCell>
        <mxCell id="1RcFYnAborwAYiBL6ikK-54" value="Condition&#xa;remplie ?" style="rhombus;" vertex="1" parent="1">
          <mxGeometry x="44" y="1335" width="90" height="80" as="geometry" />
        </mxCell>
        <mxCell id="1RcFYnAborwAYiBL6ikK-55" value="Si non" style="text;html=1;align=center;verticalAlign=middle;whiteSpace=wrap;rounded=0;" vertex="1" parent="1">
          <mxGeometry x="-26" y="1345" width="60" height="30" as="geometry" />
        </mxCell>
        <mxCell id="1RcFYnAborwAYiBL6ikK-56" value="Si oui" style="text;html=1;align=center;verticalAlign=middle;whiteSpace=wrap;rounded=0;" vertex="1" parent="1">
          <mxGeometry x="134" y="1345" width="60" height="30" as="geometry" />
        </mxCell>
        <mxCell id="1RcFYnAborwAYiBL6ikK-57" value="" style="html=1;verticalAlign=bottom;labelBackgroundColor=none;endArrow=block;endFill=1;rounded=0;entryX=0.5;entryY=0;entryDx=0;entryDy=0;exitX=0.571;exitY=1;exitDx=0;exitDy=0;exitPerimeter=0;" edge="1" parent="1" target="1RcFYnAborwAYiBL6ikK-54">
          <mxGeometry width="160" relative="1" as="geometry">
            <mxPoint x="484" y="1255" as="sourcePoint" />
            <mxPoint x="494" y="1325" as="targetPoint" />
            <Array as="points">
              <mxPoint x="484" y="1295" />
              <mxPoint x="89" y="1295" />
            </Array>
          </mxGeometry>
        </mxCell>
        <mxCell id="1RcFYnAborwAYiBL6ikK-58" value="" style="html=1;verticalAlign=bottom;labelBackgroundColor=none;endArrow=block;endFill=1;rounded=0;exitX=1;exitY=0.5;exitDx=0;exitDy=0;exitPerimeter=0;" edge="1" parent="1" source="1RcFYnAborwAYiBL6ikK-54">
          <mxGeometry width="160" relative="1" as="geometry">
            <mxPoint x="134" y="1367" as="sourcePoint" />
            <mxPoint x="434" y="1375" as="targetPoint" />
            <Array as="points">
              <mxPoint x="354" y="1375" />
            </Array>
          </mxGeometry>
        </mxCell>
        <mxCell id="1RcFYnAborwAYiBL6ikK-59" value="" style="html=1;verticalAlign=bottom;labelBackgroundColor=none;endArrow=block;endFill=1;rounded=0;exitX=0;exitY=0.5;exitDx=0;exitDy=0;" edge="1" parent="1" source="1RcFYnAborwAYiBL6ikK-54">
          <mxGeometry width="160" relative="1" as="geometry">
            <mxPoint x="44" y="1364" as="sourcePoint" />
            <mxPoint x="-407" y="1375" as="targetPoint" />
            <Array as="points" />
          </mxGeometry>
        </mxCell>
        <mxCell id="1RcFYnAborwAYiBL6ikK-60" value="" style="html=1;verticalAlign=bottom;labelBackgroundColor=none;endArrow=block;endFill=1;rounded=0;exitX=1;exitY=0.5;exitDx=0;exitDy=0;entryX=0;entryY=0.5;entryDx=0;entryDy=0;" edge="1" parent="1" source="1RcFYnAborwAYiBL6ikK-11" target="1RcFYnAborwAYiBL6ikK-18">
          <mxGeometry width="160" relative="1" as="geometry">
            <mxPoint x="-360" y="750" as="sourcePoint" />
            <mxPoint x="-200" y="750" as="targetPoint" />
            <Array as="points">
              <mxPoint x="-60" y="580" />
              <mxPoint x="-60" y="660" />
            </Array>
          </mxGeometry>
        </mxCell>
        <mxCell id="1RcFYnAborwAYiBL6ikK-61" value="" style="html=1;verticalAlign=bottom;labelBackgroundColor=none;endArrow=block;endFill=1;rounded=0;exitX=1;exitY=0.5;exitDx=0;exitDy=0;entryX=0.5;entryY=0;entryDx=0;entryDy=0;" edge="1" parent="1" source="1RcFYnAborwAYiBL6ikK-18" target="1RcFYnAborwAYiBL6ikK-24">
          <mxGeometry width="160" relative="1" as="geometry">
            <mxPoint x="134" y="810" as="sourcePoint" />
            <mxPoint x="404" y="810" as="targetPoint" />
            <Array as="points">
              <mxPoint x="474" y="660" />
            </Array>
          </mxGeometry>
        </mxCell>
        <mxCell id="1RcFYnAborwAYiBL6ikK-62" value="" style="html=1;verticalAlign=bottom;labelBackgroundColor=none;endArrow=block;endFill=1;rounded=0;entryX=1;entryY=0.25;entryDx=0;entryDy=0;" edge="1" parent="1">
          <mxGeometry width="160" relative="1" as="geometry">
            <mxPoint x="69" y="391" as="sourcePoint" />
            <mxPoint x="-168" y="242.5" as="targetPoint" />
            <Array as="points">
              <mxPoint x="69" y="243" />
            </Array>
          </mxGeometry>
        </mxCell>
        <mxCell id="1RcFYnAborwAYiBL6ikK-63" value="" style="html=1;verticalAlign=bottom;labelBackgroundColor=none;endArrow=block;endFill=1;rounded=0;exitX=1;exitY=0.5;exitDx=0;exitDy=0;entryX=0;entryY=0.5;entryDx=0;entryDy=0;" edge="1" parent="1" source="1RcFYnAborwAYiBL6ikK-19" target="1RcFYnAborwAYiBL6ikK-30">
          <mxGeometry width="160" relative="1" as="geometry">
            <mxPoint x="80" y="720" as="sourcePoint" />
            <mxPoint x="68" y="630" as="targetPoint" />
            <Array as="points" />
          </mxGeometry>
        </mxCell>
      </root>
    </mxGraphModel>
  </diagram>
</mxfile>
